<?xml version="1.0" encoding="UTF-8"?>
<svg version="1.1" xmlns="http://www.w3.org/2000/svg" width="800" height="800">
<path d="M0 0 C264 0 528 0 800 0 C800 264 800 528 800 800 C536 800 272 800 0 800 C0 536 0 272 0 0 Z " fill="#000000" transform="translate(0,0)"/>
<path d="M0 0 C0.80179688 -0.02191406 1.60359375 -0.04382813 2.4296875 -0.06640625 C9.25389945 1.52590987 13.39673908 6.65453756 17.125 12.25 C17.55232422 12.86939453 17.97964844 13.48878906 18.41992188 14.12695312 C19.27441347 15.36692965 20.1241684 16.61018599 20.96875 17.85693359 C22.49597587 20.10972074 24.05954533 22.33615762 25.625 24.5625 C26.17671875 25.35398437 26.7284375 26.14546875 27.296875 26.9609375 C29.0540697 29.46156073 30.83112275 31.94723585 32.61352539 34.42993164 C38.1246413 42.10837628 43.49410549 49.8778861 48.83300781 57.67675781 C58.27178531 71.45323503 67.8793207 85.10911656 77.6875 98.625 C82.33017879 105.02345298 86.85840602 111.48887082 91.31494141 118.01806641 C94.45534535 122.61195647 97.68778954 127.126922 100.98046875 131.61328125 C105.23451723 137.4635665 109.37521725 143.39506897 113.53857422 149.31005859 C115.65204473 152.31080943 117.7698943 155.308457 119.88769531 158.30615234 C124.01104419 164.1430164 128.1259414 169.98541612 132.21875 175.84375 C134.8452007 179.58967149 137.48543836 183.32581004 140.125 187.0625 C143.29977907 191.55686939 146.47360683 196.05168233 149.625 200.5625 C154.76348364 207.91563276 159.9491905 215.23562281 165.125 222.5625 C167.22940603 225.54149769 169.33361675 228.52063307 171.4375 231.5 C172.1965564 232.57483643 172.1965564 232.57483643 172.97094727 233.67138672 C175.573168 237.3579019 178.16797293 241.0492961 180.75 244.75 C183.47077559 248.64625631 186.23195241 252.5123035 189 256.375 C192.18915805 260.8254476 195.33624077 265.30002556 198.4375 269.8125 C202.09282151 275.11756839 205.84240911 280.34753895 209.625 285.5625 C214.89367433 292.82794992 220.07738578 300.14136698 225.125 307.5625 C225.85460937 308.59246094 226.58421875 309.62242187 227.3359375 310.68359375 C229.63866053 314.38906727 230.01975414 317.37090242 229.125 321.5625 C226.34419142 327.68670436 222.43151487 333.19734153 218.5 338.625 C217.43277113 340.11790186 216.36638343 341.61140536 215.30078125 343.10546875 C214.76791504 343.85103027 214.23504883 344.5965918 213.68603516 345.36474609 C211.31817141 348.69841977 208.99894526 352.06455555 206.6875 355.4375 C206.02548584 356.40272583 206.02548584 356.40272583 205.35009766 357.38745117 C202.82786015 361.06861566 200.3109508 364.75342405 197.79296875 368.4375 C196.94013306 369.68490967 196.94013306 369.68490967 196.07006836 370.95751953 C194.98037939 372.55179585 193.89129855 374.14648809 192.80297852 375.74169922 C189.54901283 380.50508746 186.25901883 385.2416622 182.94628906 389.96435547 C172.24516494 405.22995372 161.63410266 420.558649 151.125 435.95703125 C144.49161958 445.67324258 137.8049594 455.35015208 131.07641602 465.00073242 C126.81027412 471.12461925 122.57809704 477.27020225 118.375 483.4375 C114.3865376 489.2889062 110.35027153 495.10141319 106.25 500.875 C99.6288456 510.20022633 93.21660611 519.66585807 86.78613281 529.12304688 C82.16694629 535.9065436 77.5043051 542.65695789 72.71020508 549.31835938 C67.22927346 556.93438863 61.94252154 564.67400148 56.67358398 572.43798828 C52.637881 578.37426461 48.53412966 584.25132337 44.33764648 590.07470703 C41.73979616 593.68420179 39.23888755 597.34127577 36.79296875 601.0546875 C30.55707872 610.43042848 24.08964081 619.65620441 17.625 628.875 C17.12081543 629.59816406 16.61663086 630.32132813 16.09716797 631.06640625 C15.62166504 631.741875 15.14616211 632.41734375 14.65625 633.11328125 C14.23923828 633.70794189 13.82222656 634.30260254 13.39257812 634.9152832 C10.39578372 638.80961523 8.00987419 640.45649075 3.125 641.5625 C-2.80695741 641.5625 -5.60610178 640.48421432 -9.95874023 636.58300781 C-13.86272923 632.46663465 -16.83621638 627.66815638 -19.9375 622.9375 C-21.06812335 621.23897138 -22.20249323 619.54298381 -23.3369751 617.84703064 C-24.0990213 616.70724585 -24.85988725 615.56667107 -25.61956787 614.42530823 C-28.91648614 609.47584404 -32.31591922 604.60479978 -35.75 599.75 C-41.83838638 591.11530249 -47.75810735 582.37039757 -53.66851807 573.61364746 C-59.21035559 565.40948142 -64.87176926 557.31027511 -70.72021484 549.32080078 C-74.05632975 544.74868621 -77.15807967 540.08682247 -80.1328125 535.26953125 C-82.28536091 531.92487644 -84.60391547 528.71970142 -86.9375 525.5 C-97.34991223 511.01290958 -97.34991223 511.01290958 -98.625 505.0625 C-96.4691649 495.00193619 -88.19699306 486.37681622 -82.23828125 478.20703125 C-77.30500708 471.42535461 -72.59332895 464.49450492 -67.875 457.5625 C-65.7307781 454.41556493 -63.58496218 451.26972483 -61.4375 448.125 C-60.8909375 447.32457275 -60.344375 446.52414551 -59.78125 445.69946289 C-55.70979872 439.75049987 -51.56687051 433.855449 -47.39477539 427.97680664 C-43.66481284 422.71007749 -40.00845748 417.39617393 -36.375 412.0625 C-31.7809779 405.3187811 -27.11720429 398.63067174 -22.39453125 391.9765625 C-18.09954053 385.91171996 -13.90628935 379.78027275 -9.72387695 373.63745117 C-6.22564172 368.5089603 -2.66634971 363.42965524 0.9375 358.375 C6.71368701 350.26717713 12.21816045 341.98364598 17.69458008 333.67114258 C18.34193115 332.69169678 18.98928223 331.71225098 19.65625 330.703125 C20.22923828 329.83204102 20.80222656 328.96095703 21.39257812 328.06347656 C23.125 325.5625 23.125 325.5625 25.33862305 322.92163086 C27.40681109 320.67199527 27.40681109 320.67199527 27.17578125 317.67578125 C25.87011775 313.80732843 23.79983201 310.92363956 21.3125 307.75 C20.30057656 306.41520346 19.29021493 305.07922176 18.28125 303.7421875 C17.75789062 303.05350586 17.23453125 302.36482422 16.6953125 301.65527344 C14.16213103 298.2792735 11.73635011 294.82993925 9.3125 291.375 C8.57652588 290.32880493 8.57652588 290.32880493 7.82568359 289.26147461 C6.25696167 287.02975993 4.69076937 284.79628703 3.125 282.5625 C2.2592334 281.32862549 2.2592334 281.32862549 1.37597656 280.06982422 C-4.29805438 271.98225875 -9.96761079 263.89256197 -15.5625 255.75 C-18.76939159 251.10060327 -22.07974685 246.54051998 -25.4375 242 C-29.36425951 236.6878399 -33.10121006 231.29103072 -36.73046875 225.76953125 C-39.30035055 221.92641112 -41.95383337 218.1481401 -44.625 214.375 C-45.13756348 213.65094971 -45.65012695 212.92689941 -46.17822266 212.1809082 C-48.23120413 209.28429264 -50.28690728 206.38962144 -52.34423828 203.49609375 C-59.08621002 194.01026973 -65.69431099 184.44440953 -72.2199707 174.80834961 C-76.32752539 168.76596629 -80.55583468 162.8299046 -84.875 156.9375 C-96.9439682 140.35312947 -96.9439682 140.35312947 -98.75 133 C-97.33403424 127.43727737 -94.18392399 123.17862164 -90.875 118.5625 C-90.39240723 117.88687012 -89.90981445 117.21124023 -89.41259766 116.51513672 C-86.65247503 112.66187933 -83.87251668 108.82349837 -81.08203125 104.9921875 C-77.65855762 100.28201896 -74.34859642 95.50213939 -71.05078125 90.703125 C-68.69201594 87.2983722 -66.28975243 83.92762207 -63.875 80.5625 C-59.13066218 73.94829178 -54.49741202 67.26240057 -49.875 60.5625 C-46.39209955 55.53823085 -42.87318754 50.54920687 -39.25 45.625 C-36.17083425 41.41641052 -33.2118594 37.14045212 -30.28564453 32.82421875 C-25.43412565 25.66890599 -20.52399704 18.57032793 -15.375 11.625 C-14.89514648 10.96927002 -14.41529297 10.31354004 -13.92089844 9.63793945 C-6.68411787 -0.0106775 -6.68411787 -0.0106775 0 0 Z " fill="#DA4778" transform="translate(556.875,92.4375)"/>
<path d="M0 0 C0.81984375 -0.03996094 1.6396875 -0.07992187 2.484375 -0.12109375 C11.1531708 1.6298071 15.38405191 9.34171094 19.9375 16.1875 C21.3523385 18.26858693 22.76770712 20.34931354 24.18359375 22.4296875 C24.87437012 23.45288086 25.56514648 24.47607422 26.27685547 25.53027344 C28.96717651 29.4941862 31.72548982 33.40727235 34.5 37.3125 C35.4623745 38.67308166 36.42461525 40.03375794 37.38671875 41.39453125 C38.84023396 43.44740334 40.29423744 45.49992827 41.74853516 47.55224609 C47.11351009 55.12521392 52.45357056 62.71072663 57.6875 70.375 C62.19779467 76.9761109 66.85412963 83.46288258 71.55004883 89.93286133 C75.80721269 95.8047896 79.97037597 101.7312878 84.06835938 107.71582031 C85.42082345 109.68639401 86.78051165 111.6518861 88.140625 113.6171875 C89.13549311 115.05723886 90.13028572 116.49734238 91.125 117.9375 C91.58986816 118.60861816 92.05473633 119.27973633 92.53369141 119.97119141 C93.4006285 121.22921839 94.26180835 122.49123915 95.11621094 123.7578125 C96.08504865 125.19312762 97.07553072 126.61379269 98.0703125 128.03125 C99.63828214 131.22949272 99.81546529 132.8979463 99.25 136.4375 C97.79233678 139.38199506 95.95626807 142.00833992 94.0625 144.6875 C93.52439697 145.47108887 92.98629395 146.25467773 92.43188477 147.06201172 C88.06368782 153.3848837 83.5618458 159.61500837 79.03833008 165.82739258 C73.09023222 173.99637401 67.3962405 182.33191612 61.71972656 190.69091797 C55.31821203 200.11591705 48.83428033 209.45826698 42.12548828 218.66748047 C38.23490377 224.02594546 34.46845112 229.45844189 30.75 234.9375 C25.9691838 241.97890073 21.06526468 248.9154747 16.0612793 255.79980469 C11.84102392 261.60703931 7.68614483 267.45741695 3.55615234 273.32910156 C0.89434447 277.11208718 -1.78223967 280.88320467 -4.48339844 284.63818359 C-9.55955625 291.69663661 -14.48613559 298.85158305 -19.37280273 306.04248047 C-19.89817627 306.81479004 -20.4235498 307.58709961 -20.96484375 308.3828125 C-21.43011475 309.06875488 -21.89538574 309.75469727 -22.37475586 310.46142578 C-23.75 312.4375 -23.75 312.4375 -25.48657227 314.37841797 C-26.99000941 316.38867826 -26.99000941 316.38867826 -26.60595703 318.91918945 C-25.71118575 321.55169539 -24.64788183 323.4568855 -23.0546875 325.73046875 C-22.50731934 326.52026123 -21.95995117 327.31005371 -21.39599609 328.1237793 C-20.81156738 328.94918213 -20.22713867 329.77458496 -19.625 330.625 C-19.02896973 331.4806958 -18.43293945 332.3363916 -17.81884766 333.21801758 C-16.13678628 335.62992176 -14.44489764 338.03460714 -12.75 340.4375 C-11.54151616 342.16656149 -10.33314156 343.89569934 -9.125 345.625 C-8.59777344 346.37394531 -8.07054687 347.12289063 -7.52734375 347.89453125 C-5.22660916 351.18635151 -2.95816955 354.49989911 -0.6875 357.8125 C3.46010501 363.86180772 7.65673578 369.87480028 11.875 375.875 C17.34317168 383.65974079 22.7205595 391.50315956 28.0625 399.375 C28.79259277 400.45072266 29.52268555 401.52644531 30.27490234 402.63476562 C31.66261198 404.67967778 33.05030805 406.72459914 34.43798828 408.76953125 C40.59839513 417.83998747 46.93141012 426.76832373 53.37719727 435.63745117 C57.26756788 441.01479777 60.99746486 446.47631474 64.64331055 452.02148438 C67.90318877 456.96484592 71.31560258 461.78468014 74.77978516 466.58642578 C77.02545753 469.70437676 79.21195395 472.84513469 81.3125 476.0625 C83.65838555 479.6479728 86.20763214 483.03574822 88.8125 486.4375 C97.67540642 498.21977593 97.67540642 498.21977593 98.875 504.9375 C97.40007048 513.1971053 91.41339578 520.29651078 86.625 527 C85.38352053 528.7547882 84.14264312 530.5100025 82.90234375 532.265625 C82.28858887 533.13251953 81.67483398 533.99941406 81.04248047 534.89257812 C77.95025797 539.28284335 74.91964435 543.71501946 71.89013672 548.14868164 C71.48166504 548.74543701 71.07319336 549.34219238 70.65234375 549.95703125 C70.26030762 550.53018066 69.86827148 551.10333008 69.46435547 551.69384766 C68.17169755 553.54993187 66.83863924 555.37321991 65.50390625 557.19921875 C63.15685894 560.24625049 63.15685894 560.24625049 62.25 563.4375 C61.59 563.4375 60.93 563.4375 60.25 563.4375 C59.97615479 564.01169678 59.70230957 564.58589355 59.42016602 565.17749023 C58.25041779 567.4366931 56.9513326 569.49050013 55.52734375 571.59765625 C54.99608887 572.38543457 54.46483398 573.17321289 53.91748047 573.98486328 C53.36721191 574.7942334 52.81694336 575.60360352 52.25 576.4375 C51.46133545 577.59934814 51.46133545 577.59934814 50.65673828 578.78466797 C49.04608982 581.1509415 47.43033464 583.51363453 45.8125 585.875 C44.95664307 587.12494751 44.95664307 587.12494751 44.08349609 588.40014648 C39.67825347 594.82712792 35.22594094 601.21902702 30.734375 607.5859375 C30.20328125 608.34132813 29.6721875 609.09671875 29.125 609.875 C28.55523437 610.68324219 27.98546875 611.49148438 27.3984375 612.32421875 C25.62531353 614.89363657 23.88888957 617.48025267 22.1640625 620.08203125 C21.60348145 620.92000244 21.04290039 621.75797363 20.46533203 622.62133789 C19.34595336 624.29594496 18.23455163 625.97591975 17.13232422 627.66186523 C13.40352585 633.21639882 9.35235107 638.38632447 3.25 641.4375 C-2.42423093 641.99379715 -6.25479032 640.85593689 -10.75 637.4375 C-12.68044865 635.24448009 -14.17599289 632.8695526 -15.6875 630.375 C-16.54891431 629.01964497 -17.41221161 627.66548495 -18.27734375 626.3125 C-18.90552002 625.31863281 -18.90552002 625.31863281 -19.54638672 624.3046875 C-21.18821304 621.75769202 -22.9530893 619.31444241 -24.75 616.875 C-34.79558125 603.23160494 -44.50236637 589.35944794 -53.87109375 575.2421875 C-56.07443323 571.9532109 -58.34463391 568.716266 -60.625 565.48046875 C-63.58986238 561.23482942 -66.51364631 556.96144911 -69.4375 552.6875 C-69.99655029 551.87079834 -70.55560059 551.05409668 -71.1315918 550.21264648 C-73.358404 546.95530415 -75.57888252 543.69718414 -77.75 540.40234375 C-80.42040153 536.4436821 -83.24565942 532.60520057 -86.0625 528.75 C-90.23496415 523.01300607 -94.21836763 517.23914219 -97.94921875 511.203125 C-100.66870855 507.02655498 -103.65906013 503.05888927 -106.62890625 499.05834961 C-110.17064815 494.27176813 -113.51428228 489.38279445 -116.78515625 484.40625 C-120.3492453 479.02114527 -124.05690094 473.73453624 -127.75 468.4375 C-128.59304687 467.22707031 -128.59304687 467.22707031 -129.453125 465.9921875 C-132.04779268 462.27652261 -134.65345787 458.569556 -137.2890625 454.8828125 C-144.03857602 445.41670432 -150.53282956 435.80147002 -156.95556641 426.11083984 C-161.31318092 419.55086623 -165.77447007 413.09551786 -170.39453125 406.71875 C-173.0796196 403.00390472 -175.66392415 399.22163982 -178.25 395.4375 C-181.65406188 390.45931918 -185.10067364 385.5187504 -188.625 380.625 C-194.8232293 372.00352351 -200.77701446 363.21575711 -206.75 354.4375 C-208.72134795 351.54203597 -210.69303393 348.6468033 -212.6652832 345.75195312 C-213.93149886 343.89309112 -215.19701082 342.03374947 -216.46166992 340.17382812 C-217.04924072 339.31080078 -217.63681152 338.44777344 -218.2421875 337.55859375 C-218.81533691 336.71546631 -219.38848633 335.87233887 -219.97900391 335.00366211 C-221.20763696 333.2233806 -222.45621439 331.45676336 -223.72021484 329.70141602 C-224.67081787 328.37968384 -224.67081787 328.37968384 -225.640625 327.03125 C-226.21586914 326.24298828 -226.79111328 325.45472656 -227.38378906 324.64257812 C-229.1028663 321.86797026 -229.76025898 319.78113223 -229.41796875 316.5390625 C-226.84439096 308.44207508 -220.44116659 301.57172502 -215.43237305 294.82983398 C-211.07842728 288.95248054 -206.90985901 282.95325095 -202.75 276.9375 C-197.75671702 269.72068232 -192.7024104 262.5663031 -187.48046875 255.51342773 C-182.65874276 248.99039956 -178.07175464 242.30836714 -173.50195312 235.60742188 C-167.60456387 226.96087372 -161.59780941 218.4104531 -155.44848633 209.94091797 C-151.57274591 204.59670064 -147.7872913 199.20170376 -144.046875 193.76171875 C-139.85560909 187.67625198 -135.56561076 181.6592069 -131.29833984 175.62695312 C-128.77977199 172.06553456 -126.26504559 168.50140636 -123.75 164.9375 C-122.75001918 163.5208198 -121.75001916 162.10415314 -120.75 160.6875 C-120.255 159.98625 -119.76 159.285 -119.25 158.5625 C-117.75 156.4375 -116.25 154.3125 -114.75 152.1875 C-114.00762085 151.13574585 -114.00762085 151.13574585 -113.25024414 150.06274414 C-112.24955812 148.64517346 -111.24874417 147.22769308 -110.24780273 145.81030273 C-107.75724549 142.28319428 -105.26888408 138.75457783 -102.78515625 135.22265625 C-97.59160633 127.84257314 -92.35883282 120.49424919 -87.0625 113.1875 C-82.59824795 107.02848559 -78.21772707 100.82450927 -73.91015625 94.5546875 C-71.64190076 91.2815087 -69.32611609 88.04457709 -67 84.8125 C-62.99774527 79.24483135 -59.10952433 73.60489196 -55.25 67.9375 C-48.54749955 58.09959588 -41.66647762 48.410786 -34.625 38.8125 C-31.90039926 35.08121946 -29.29675454 31.29231523 -26.75 27.4375 C-8.74138759 0.23075091 -8.74138759 0.23075091 0 0 Z " fill="#0F7FF5" transform="translate(237.75,92.5625)"/>
<path d="M0 0 C0.89203125 -0.05414063 1.7840625 -0.10828125 2.703125 -0.1640625 C11.53503757 2.1231764 16.57275824 11.19337947 21.25 18.375 C22.56785147 20.35363698 23.88684733 22.33151226 25.20703125 24.30859375 C25.82529785 25.2404248 26.44356445 26.17225586 27.08056641 27.13232422 C29.53359715 30.79500978 32.12465765 34.33611621 34.7421875 37.8828125 C41.37568858 46.94257467 47.77778757 56.17564389 54.125 65.4375 C62.91955941 78.2677761 71.78239772 91.04162389 81.05639648 103.53100586 C84.24361576 107.85325275 87.11555094 112.31536292 89.94140625 116.8828125 C92.05642765 120.0896052 94.37894455 123.10665082 96.75 126.125 C100.4349939 130.81599037 103.72040953 135.62585593 106.85546875 140.69921875 C109.10612265 144.17497086 111.53172621 147.48942763 114 150.8125 C118.31296137 156.62227787 122.47086865 162.51603012 126.54711914 168.49389648 C129.45530582 172.75417564 132.40245408 176.98343971 135.38793945 181.18994141 C136.90962247 183.33568948 138.42220159 185.48762056 139.93359375 187.640625 C141.68601242 190.13438286 143.46663541 192.60100417 145.28515625 195.046875 C152.15231663 204.59065345 152.15231663 204.59065345 151.42358398 210.22973633 C150.61146566 213.11762792 149.32974162 215.15880596 147.6796875 217.6640625 C147.04699951 218.63126221 146.41431152 219.59846191 145.76245117 220.5949707 C145.09834229 221.59488037 144.4342334 222.59479004 143.75 223.625 C142.80314331 225.06782349 142.80314331 225.06782349 141.8371582 226.53979492 C139.88121975 229.51289104 137.91211251 232.47677651 135.9375 235.4375 C135.23463867 236.49138916 134.53177734 237.54527832 133.80761719 238.63110352 C129.00041588 245.81372534 124.08367216 252.89139418 119.00683594 259.88525391 C112.43215564 268.98610314 105.990127 278.17565666 99.80078125 287.54296875 C94.02630722 296.2211783 88.09423251 304.79349566 82 313.25 C77.00775946 320.18017808 72.22045281 327.24620567 67.42333984 334.31225586 C63.07230392 340.71170822 58.6503912 347.05433542 54.16845703 353.36254883 C50.47048762 358.57749096 46.84911241 363.84143477 43.25 369.125 C38.6613269 375.8609106 34.01435305 382.54980773 29.28051758 389.18457031 C26.57238593 392.99320159 23.93180523 396.83513398 21.35546875 400.734375 C20.78505859 401.59095703 20.21464844 402.44753906 19.62695312 403.33007812 C18.53297151 404.9780065 17.44894112 406.63260257 16.37695312 408.29492188 C12.74185664 413.74989979 8.95912314 418.54072988 2.30859375 420.25390625 C1.60863281 420.23199219 0.90867187 420.21007812 0.1875 420.1875 C-0.86630859 420.18943359 -0.86630859 420.18943359 -1.94140625 420.19140625 C-9.65008427 418.30010623 -12.88261497 412.24562615 -16.875 405.9375 C-18.11006668 404.03521528 -19.34707522 402.13419002 -20.5859375 400.234375 C-21.20049805 399.28755859 -21.81505859 398.34074219 -22.44824219 397.36523438 C-25.04771849 393.41177611 -27.75707062 389.5423066 -30.5 385.6875 C-30.98903809 384.99865723 -31.47807617 384.30981445 -31.98193359 383.60009766 C-34.29152618 380.35458161 -36.61330794 377.11788278 -38.9375 373.8828125 C-39.79188107 372.69286224 -40.64605244 371.5027614 -41.5 370.3125 C-42.1175415 369.45180908 -42.1175415 369.45180908 -42.74755859 368.57373047 C-45.95859441 364.07828032 -49.01590493 359.49294707 -52.05859375 354.8828125 C-55.21376776 350.19223296 -58.48655561 345.58752432 -61.75512695 340.97558594 C-67.18156193 333.31855874 -72.52386967 325.6055295 -77.828125 317.86328125 C-83.12916832 310.12920723 -88.48082641 302.43508352 -93.90063477 294.78369141 C-96.96258395 290.45853221 -99.99566562 286.11534512 -103 281.75 C-105.73166124 277.78563964 -108.51805439 273.87493772 -111.375 270 C-113.93229508 266.51140652 -116.3330872 262.98063147 -118.625 259.3125 C-121.29215962 255.0486734 -124.11781656 250.94824258 -127.0625 246.875 C-150.73396724 214.09216571 -150.73396724 214.09216571 -150.60742188 205.82763672 C-149.94412327 201.74001377 -147.48761087 198.89467718 -145 195.6875 C-143.89145964 194.19045019 -142.78340013 192.69304421 -141.67578125 191.1953125 C-141.10553223 190.43766602 -140.5352832 189.68001953 -139.94775391 188.89941406 C-137.28902186 185.33761543 -134.74025842 181.70060061 -132.1875 178.0625 C-131.69378906 177.36374756 -131.20007813 176.66499512 -130.69140625 175.94506836 C-126.77839017 170.40397638 -122.93824309 164.81473793 -119.10864258 159.21582031 C-116.58638182 155.53796023 -114.02005324 151.90379614 -111.375 148.3125 C-107.75759001 143.39045034 -104.31224743 138.36092622 -100.875 133.3125 C-94.41868395 123.83584726 -87.78524239 114.50460176 -81.05859375 105.21875 C-74.68695649 96.42039684 -68.38731701 87.58913728 -62.25 78.625 C-54.17687432 66.83716889 -45.99058928 55.1362875 -37.72949219 43.47949219 C-36.21460894 41.34112002 -34.7007322 39.20204083 -33.1875 37.0625 C-32.69362793 36.36455322 -32.19975586 35.66660645 -31.69091797 34.94750977 C-28.70818759 30.72205664 -25.76655356 26.47100766 -22.85205078 22.19824219 C-7.87530265 0.24750951 -7.87530265 0.24750951 0 0 Z " fill="#A929BC" transform="translate(397.25,202.375)"/>
<path d="M0 0 C0.66 0 1.32 0 2 0 C3.62683927 2.24068383 5.13780769 4.48138396 6.625 6.8125 C7.53332664 8.20692268 8.44349736 9.6001458 9.35546875 10.9921875 C9.80583496 11.68022461 10.25620117 12.36826172 10.72021484 13.07714844 C12.38888892 15.58429782 14.14846285 18.01507703 15.9375 20.4375 C19.31931905 25.03649728 22.61819619 29.68700743 25.875 34.375 C26.35187256 35.05361084 26.82874512 35.73222168 27.32006836 36.43139648 C29.6842759 39.85183465 31.66377828 43.02205259 33 47 C33.66 47 34.32 47 35 47 C36.09741211 48.42114258 36.09741211 48.42114258 37.27734375 50.39453125 C37.70853516 51.10287109 38.13972656 51.81121094 38.58398438 52.54101562 C39.03064453 53.29060547 39.47730469 54.04019531 39.9375 54.8125 C40.81778793 56.27964654 41.70178299 57.7445765 42.58984375 59.20703125 C42.98034912 59.8616333 43.37085449 60.51623535 43.77319336 61.19067383 C45.0225289 63.0332262 46.41395691 64.44683531 48 66 C48.83179325 67.45697979 49.62167873 68.93844123 50.375 70.4375 C53.07270159 75.39804979 55.82900644 77.84213677 60.8125 80.5 C64.9047119 81.14191559 66.77712467 79.98703168 70.265625 77.9453125 C72 77 72 77 74 77 C74.268125 76.278125 74.53625 75.55625 74.8125 74.8125 C75.99901362 72.00233617 77.27485639 69.51583443 79 67 C79.66 67 80.32 67 81 67 C81.20625 66.319375 81.4125 65.63875 81.625 64.9375 C83.45408866 61.02990149 86.10279034 58.16142061 89 55 C89 58.63773689 88.11617727 59.62827558 86.04296875 62.5625 C85.11581055 63.88121094 85.11581055 63.88121094 84.16992188 65.2265625 C83.51572266 66.14179687 82.86152344 67.05703125 82.1875 68 C81.54490234 68.91523437 80.90230469 69.83046875 80.24023438 70.7734375 C72.65646799 81.49287517 72.65646799 81.49287517 66 83 C60.06804259 83 57.26889822 81.92171432 52.91625977 78.02050781 C49.01227077 73.90413465 46.03878362 69.10565638 42.9375 64.375 C41.80687665 62.67647138 40.67250677 60.98048381 39.5380249 59.28453064 C38.7759787 58.14474585 38.01511275 57.00417107 37.25543213 55.86280823 C33.95850257 50.91332708 30.55861681 46.04264231 27.125 41.1875 C21.68188205 33.45326549 16.3164203 25.66741514 10.99188232 17.85122681 C10.12710325 16.58246467 9.26110867 15.3145301 8.39385986 14.04745483 C7.17953553 12.27234572 5.96998237 10.49408187 4.76171875 8.71484375 C4.06006592 7.68480225 3.35841309 6.65476074 2.63549805 5.59350586 C1 3 1 3 0 0 Z " fill="#DC6A2D" transform="translate(494,651)"/>
<path d="M0 0 C0.66 0 1.32 0 2 0 C3.62683927 2.24068383 5.13780769 4.48138396 6.625 6.8125 C7.53332664 8.20692268 8.44349736 9.6001458 9.35546875 10.9921875 C9.80583496 11.68022461 10.25620117 12.36826172 10.72021484 13.07714844 C12.38888892 15.58429782 14.14846285 18.01507703 15.9375 20.4375 C19.31931905 25.03649728 22.61819619 29.68700743 25.875 34.375 C26.35187256 35.05361084 26.82874512 35.73222168 27.32006836 36.43139648 C29.6842759 39.85183465 31.66377828 43.02205259 33 47 C33.66 47 34.32 47 35 47 C36.32421875 48.64453125 36.32421875 48.64453125 37.6875 50.8125 C38.37392578 51.87404297 38.37392578 51.87404297 39.07421875 52.95703125 C40 55 40 55 39 58 C31.78617931 47.82763155 24.62762559 37.62187215 17.59228516 27.32519531 C15.73751407 24.61669488 13.8744192 21.91399039 12.01171875 19.2109375 C10.63263725 17.20324537 9.25372991 15.19543359 7.875 13.1875 C6.87859497 11.74467651 6.87859497 11.74467651 5.86206055 10.27270508 C4.93647339 8.9214856 4.93647339 8.9214856 3.9921875 7.54296875 C3.43901855 6.73883545 2.88584961 5.93470215 2.31591797 5.10620117 C1 3 1 3 0 0 Z " fill="#E06847" transform="translate(494,651)"/>
<path d="M0 0 C2.89215743 1.38070445 4.5842104 2.78980952 7 5 C7.495 6.485 7.495 6.485 8 8 C5.525 7.505 5.525 7.505 3 7 C2.67 6.01 2.34 5.02 2 4 C0.60669619 3.7753715 -0.78989209 3.5710755 -2.1875 3.375 C-2.96480469 3.25898437 -3.74210937 3.14296875 -4.54296875 3.0234375 C-7.61062789 2.99417525 -9.30001459 3.52920732 -12 5 C-14.42943585 7.4231273 -14.42943585 7.4231273 -16.625 10.3125 C-17.75808594 11.72982422 -17.75808594 11.72982422 -18.9140625 13.17578125 C-21.01898414 15.92101248 -21.01898414 15.92101248 -22.60546875 18.7421875 C-24.31089997 21.50336186 -26.14687598 22.53488226 -29 24 C-23.81978391 12.49476869 -14.28394866 -3.10818723 0 0 Z " fill="#27ACE0" transform="translate(243,93)"/>
<path d="M0 0 C3.35570612 3.03611506 5.69309739 6.08754207 6.421875 10.62890625 C5.80892768 15.52680939 3.36831344 18.64960627 0.5625 22.625 C-0.25033447 23.80727173 -0.25033447 23.80727173 -1.07958984 25.01342773 C-2.700952 27.35621729 -4.34428422 29.68138975 -6 32 C-6.46841309 32.65597168 -6.93682617 33.31194336 -7.41943359 33.98779297 C-14.41958674 43.70979337 -14.41958674 43.70979337 -17 45 C-15.125 40.25 -15.125 40.25 -14 38 C-13.34 38 -12.68 38 -12 38 C-11.731875 37.278125 -11.46375 36.55625 -11.1875 35.8125 C-10.00098638 33.00233617 -8.72514361 30.51583443 -7 28 C-6.34 28 -5.68 28 -5 28 C-4.73574219 27.27683594 -4.47148437 26.55367187 -4.19921875 25.80859375 C-2.98720703 22.9700386 -1.51888588 20.62815859 0.1875 18.0625 C2.59785431 14.12754511 2.59785431 14.12754511 3 9.5625 C2.0358414 6.82164638 2.0358414 6.82164638 0 4 C0 2.68 0 1.36 0 0 Z " fill="#1C90E0" transform="translate(331,215)"/>
<path d="M0 0 C0.33 0.66 0.66 1.32 1 2 C-0.1875 4.25 -0.1875 4.25 -2 7 C-2.680625 8.093125 -3.36125 9.18625 -4.0625 10.3125 C-4.701875 11.199375 -5.34125 12.08625 -6 13 C-6.66 13 -7.32 13 -8 13 C-8.09667969 13.73476562 -8.19335938 14.46953125 -8.29296875 15.2265625 C-9.09507244 18.37293611 -10.23247796 19.90747921 -12.3125 22.375 C-14.53627234 25.10252485 -16.52059147 27.71205014 -18.1875 30.8125 C-19.87366214 33.77781962 -21.39044458 35.82537049 -24 38 C-24.66 38 -25.32 38 -26 38 C-24.67144389 34.30229457 -23.04522619 31.44772048 -20.6875 28.3125 C-19.98625 27.36890625 -19.285 26.4253125 -18.5625 25.453125 C-17.96501953 24.65165039 -17.96501953 24.65165039 -17.35546875 23.83398438 C-14.59759073 20.10250388 -11.89856027 16.32805047 -9.1875 12.5625 C-8.07728767 11.02180041 -6.96663393 9.48141878 -5.85546875 7.94140625 C-5.37746826 7.27826416 -4.89946777 6.61512207 -4.40698242 5.93188477 C-2.95651469 3.94029164 -1.48277292 1.96762569 0 0 Z " fill="#289BD9" transform="translate(143,217)"/>
<path d="M0 0 C0.66 0 1.32 0 2 0 C0.54214501 4.20386756 -1.55135149 7.36523175 -4.1875 10.9375 C-9.51461469 18.23560686 -14.59113836 25.69428566 -19.64526367 33.18334961 C-23.29236465 38.56758032 -27.0375072 43.84290526 -31 49 C-31.33 48.34 -31.66 47.68 -32 47 C-31.36191406 46.09636719 -30.72382812 45.19273437 -30.06640625 44.26171875 C-29.2315783 43.0704474 -28.39695346 41.8790337 -27.5625 40.6875 C-27.14162109 40.09259766 -26.72074219 39.49769531 -26.28710938 38.88476562 C-24.46155404 36.27057039 -23.01412535 34.04237604 -22 31 C-21.34 31 -20.68 31 -20 31 C-19.74347656 30.278125 -19.48695313 29.55625 -19.22265625 28.8125 C-17.92917939 25.83708997 -16.38965565 23.58709921 -14.4375 21 C-11.23817461 16.69321582 -8.11433045 12.3491911 -5.0625 7.9375 C-4.31097656 6.85339844 -3.55945313 5.76929688 -2.78515625 4.65234375 C-1.03021226 2.16742848 -1.03021226 2.16742848 0 0 Z " fill="#D96B35" transform="translate(633,632)"/>
<path d="M0 0 C2 2 2 2 2.4375 5.0625 C1.47501346 13.72487885 -4.98700112 21.07249888 -9.9375 28 C-14.39035566 34.2716277 -18.77152346 40.57434536 -23 47 C-23.59448242 45.14575195 -23.59448242 45.14575195 -24 43 C-22.48828125 40.66796875 -22.48828125 40.66796875 -20.3125 38.1875 C-16.99261414 34.25925809 -14.40423218 30.53105295 -12 26 C-11.34 25.01 -10.68 24.02 -10 23 C-9.34 23 -8.68 23 -8 23 C-7.7525 22.29875 -7.505 21.5975 -7.25 20.875 C-6 18 -6 18 -4 15.4375 C-1.15349382 10.5450675 -0.68382319 5.56056227 0 0 Z " fill="#2A48D1" transform="translate(334,592)"/>
<path d="M0 0 C0.66 0.33 1.32 0.66 2 1 C1.6690332 1.45101074 1.33806641 1.90202148 0.99707031 2.36669922 C-5.84224308 11.70779861 -12.52981993 21.11567844 -18.86425781 30.80810547 C-22.06341622 35.68371331 -25.44993852 40.37366852 -29 45 C-29.495 43.515 -29.495 43.515 -30 42 C-28.48046875 39.609375 -28.48046875 39.609375 -26.1875 36.75 C-22.53269712 32.08697564 -19.12914769 27.32611895 -15.875 22.375 C-15.03666369 21.10403119 -14.19812588 19.83319526 -13.359375 18.5625 C-12.96041016 17.95792969 -12.56144531 17.35335937 -12.15039062 16.73046875 C-8.33048495 10.98439672 -4.42008388 5.30410065 0 0 Z " fill="#DB6736" transform="translate(665,587)"/>
<path d="M0 0 C0.33 0.99 0.66 1.98 1 3 C0.525625 3.9075 0.05125 4.815 -0.4375 5.75 C-2.38546326 9.80176357 -2.80410262 11.54088545 -2 16 C-0.29222886 18.77399862 1.62181183 21.30032172 3.6171875 23.875 C6.26258067 27.34436809 8.68519754 30.90681457 11.0625 34.5625 C11.46847412 35.17037354 11.87444824 35.77824707 12.29272461 36.40454102 C13.25957374 37.89653477 14.13874402 39.44466058 15 41 C14.67 41.66 14.34 42.32 14 43 C8.58133978 35.7983615 3.21744017 28.56435117 -1.6875 21 C-2.33074219 20.01 -2.97398437 19.02 -3.63671875 18 C-5.28729536 14.36778556 -5.42198504 11.95213944 -5 8 C-3.90625 5.56640625 -3.90625 5.56640625 -2.5 3.5625 C-2.0359375 2.88316406 -1.571875 2.20382812 -1.09375 1.50390625 C-0.55234375 0.75947266 -0.55234375 0.75947266 0 0 Z " fill="#D75851" transform="translate(464,586)"/>
<path d="M0 0 C0.33 0.66 0.66 1.32 1 2 C-1.3860405 7.1761685 -4.66495033 11.80541442 -8.5 16 C-15.3312772 23.46429114 -15.3312772 23.46429114 -18.1484375 32.859375 C-17.9074645 35.29664481 -17.55775652 37.61685851 -17 40 C-19.0216513 37.49726055 -19.96830399 36.15531044 -20.625 32.9375 C-19.67744582 26.96790868 -16.46149812 22.83416117 -13 18 C-12.46955078 17.25524414 -11.93910156 16.51048828 -11.39257812 15.74316406 C-7.62868114 10.47077102 -3.82756872 5.2263193 0 0 Z " fill="#6D21A4" transform="translate(479,193)"/>
<path d="M0 0 C3.84193995 3.49842532 6.56146727 7.52812113 9.4375 11.8125 C10.37306588 13.19443851 11.30925961 14.57595219 12.24609375 15.95703125 C12.69968262 16.62686035 13.15327148 17.29668945 13.62060547 17.98681641 C15.70181995 21.02428448 17.84807423 24.01229906 20 27 C19.67 27.66 19.34 28.32 19 29 C17.82750647 27.54634731 16.66216184 26.08692581 15.5 24.625 C14.8503125 23.81289062 14.200625 23.00078125 13.53125 22.1640625 C12 20 12 20 12 18 C11.01 17.67 10.02 17.34 9 17 C5.93071241 14.5590705 4.52224451 11.41186971 2.8125 7.9375 C2.28269531 6.87402344 1.75289062 5.81054688 1.20703125 4.71484375 C0 2 0 2 0 0 Z " fill="#34AACD" transform="translate(251,101)"/>
<path d="M0 0 C0 3.62361106 -0.80164832 4.2317053 -3 7 C-3.6496875 8.11375 -3.6496875 8.11375 -4.3125 9.25 C-5.77885061 11.63960839 -7.30072862 13.91329253 -8.9375 16.1875 C-9.42089844 16.86167969 -9.90429688 17.53585937 -10.40234375 18.23046875 C-12.12704413 20.14071147 -13.64525003 21.00825865 -16 22 C-13.82586724 17.41778446 -10.92091859 13.44243088 -8 9.3125 C-7.4534375 8.52810547 -6.906875 7.74371094 -6.34375 6.93554688 C-5.8178125 6.18982422 -5.291875 5.44410156 -4.75 4.67578125 C-4.27046875 3.99427002 -3.7909375 3.31275879 -3.296875 2.6105957 C-2 1 -2 1 0 0 Z " fill="#239BDD" transform="translate(108,268)"/>
<path d="M0 0 C0 4.76980682 -3.04555677 7.77313477 -5.75 11.5625 C-6.28882813 12.34302734 -6.82765625 13.12355469 -7.3828125 13.92773438 C-7.91132813 14.67474609 -8.43984375 15.42175781 -8.984375 16.19140625 C-9.70705566 17.21536499 -9.70705566 17.21536499 -10.44433594 18.26000977 C-12.14584708 20.16312808 -13.6636135 21.01726924 -16 22 C-14.50869275 17.51770013 -12.01864173 14.10306074 -9.125 10.4375 C-8.47337891 9.59155273 -8.47337891 9.59155273 -7.80859375 8.72851562 C-5.38088548 5.61186312 -2.86254606 2.7227473 0 0 Z " fill="#289FDA" transform="translate(176,172)"/>
<path d="M0 0 C0 3.99711412 -1.32141544 5.1042329 -4 8 C-7.75064711 11.10767903 -11.05381472 11.52490179 -15.78125 11.3515625 C-19.30742007 10.79283837 -21.38076691 9.36369816 -24 7 C-25.375 4.25 -25.375 4.25 -26 2 C-23.25642792 3.52420671 -21.18121701 4.78858016 -19.125 7.1875 C-17.0278321 9.30079846 -17.0278321 9.30079846 -13.625 9.5 C-9.39907004 8.91711311 -7.25822173 7.71518478 -4 5 C-3.67 4.01 -3.34 3.02 -3 2 C-2.01 1.34 -1.02 0.68 0 0 Z " fill="#B33F5F" transform="translate(411,611)"/>
<path d="M0 0 C0.66 0.33 1.32 0.66 2 1 C1.36191406 1.90363281 0.72382813 2.80726563 0.06640625 3.73828125 C-0.7684217 4.9295526 -1.60304654 6.1209663 -2.4375 7.3125 C-2.85837891 7.90740234 -3.27925781 8.50230469 -3.71289062 9.11523438 C-5.53844596 11.72942961 -6.98587465 13.95762396 -8 17 C-8.66 17 -9.32 17 -10 17 C-10.33 17.99 -10.66 18.98 -11 20 C-11.33 19.01 -11.66 18.02 -12 17 C-10.01950766 13.10974719 -7.89655674 9.29154175 -5 6 C-4.34 6 -3.68 6 -3 6 C-2.690625 5.195625 -2.38125 4.39125 -2.0625 3.5625 C-1 1 -1 1 0 0 Z " fill="#293FCD" transform="translate(308,639)"/>
<path d="M0 0 C3.43684471 3.10952617 5.67858637 6.19204831 6.5 10.8125 C5.79935735 15.27909688 3.58680185 18.36000025 1 22 C0.67 21.01 0.34 20.02 0 19 C0.495 18.071875 0.99 17.14375 1.5 16.1875 C3.25182783 12.46486587 3.124964 10.89410616 2 7 C1.34 6.01 0.68 5.02 0 4 C0 2.68 0 1.36 0 0 Z " fill="#217FC3" transform="translate(331,215)"/>
<path d="M0 0 C0.66 0.33 1.32 0.66 2 1 C1.0919838 2.13199353 0.17316174 3.25532363 -0.75 4.375 C-1.26046875 5.00148438 -1.7709375 5.62796875 -2.296875 6.2734375 C-5.19830791 9.21479839 -7.39406044 9.94589825 -11.5 10.3125 C-15.12402615 9.98892624 -16.42589181 9.47114386 -19 7 C-17.35 7 -15.7 7 -14 7 C-14 7.66 -14 8.32 -14 9 C-13.34 9 -12.68 9 -12 9 C-12 8.34 -12 7.68 -12 7 C-10.948125 6.95875 -9.89625 6.9175 -8.8125 6.875 C-3.81527945 5.72809692 -2.87714602 4.09775342 0 0 Z " fill="#2A37DA" transform="translate(249,724)"/>
<path d="M0 0 C0.66 0.66 1.32 1.32 2 2 C0.5737474 3.90167013 -0.85284188 5.80307268 -2.28125 7.703125 C-3.39215104 9.18769275 -4.49677972 10.67698412 -5.59375 12.171875 C-8.19826827 15.70657837 -10.75930283 19.00858723 -14 22 C-12.33383155 16.73786039 -9.06931631 12.60840413 -5.875 8.1875 C-5.31167969 7.39923828 -4.74835938 6.61097656 -4.16796875 5.79882812 C-2.78322342 3.86253169 -1.39381373 1.92977359 0 0 Z " fill="#671FAB" transform="translate(507,153)"/>
<path d="M0 0 C3.66038898 3.38671504 6.40850722 7.18600451 9.25 11.25 C9.93835938 12.22453125 9.93835938 12.22453125 10.640625 13.21875 C11.76389558 14.81004999 12.88243056 16.40469095 14 18 C13.67 18.66 13.34 19.32 13 20 C12.34 19.67 11.68 19.34 11 19 C11 18.34 11 17.68 11 17 C10.34 17 9.68 17 9 17 C7.59765625 14.953125 7.59765625 14.953125 6.0625 12.25 C4.57792819 9.65294856 3.16432958 7.20797369 1.30859375 4.859375 C0 3 0 3 0 0 Z " fill="#37AED4" transform="translate(279,141)"/>
<path d="M0 0 C0.99 0.33 1.98 0.66 3 1 C1.66938508 3.87666273 0.17712023 6.21136636 -1.875 8.625 C-2.36742187 9.21539062 -2.85984375 9.80578125 -3.3671875 10.4140625 C-5.12154783 12.11805842 -6.77028708 13.02510387 -9 14 C-7.45158425 10.65291949 -5.50894136 7.75332488 -3.375 4.75 C-2.74335938 3.85796875 -2.11171875 2.9659375 -1.4609375 2.046875 C-0.73777344 1.03367188 -0.73777344 1.03367188 0 0 Z " fill="#26A2DC" transform="translate(188,153)"/>
<path d="M0 0 C0.66 0 1.32 0 2 0 C3.39818654 2.08095279 4.68337637 4.14712323 5.9375 6.3125 C8.02432745 9.88604682 10.01445173 13.10278156 13 16 C14.1875 19.1875 14.1875 19.1875 15 22 C10.86460595 18.14775005 7.77724826 14.03180437 4.6875 9.3125 C4.23310547 8.63638672 3.77871094 7.96027344 3.31054688 7.26367188 C0 2.26051457 0 2.26051457 0 0 Z " fill="#DA5E4A" transform="translate(479,629)"/>
<path d="M0 0 C2.14423875 2.05615706 3.95399816 4.17197393 5.69921875 6.57421875 C6.42915039 7.57485352 6.42915039 7.57485352 7.17382812 8.59570312 C7.67333984 9.28599609 8.17285156 9.97628906 8.6875 10.6875 C9.19861328 11.38939453 9.70972656 12.09128906 10.23632812 12.81445312 C11.49324892 14.54125085 12.74694208 16.27039713 14 18 C13.67 18.66 13.34 19.32 13 20 C9.41193683 16.61127367 6.54315201 13.23858668 4 9 C4 8.34 4 7.68 4 7 C3.34 7 2.68 7 2 7 C1.34 4.69 0.68 2.38 0 0 Z " fill="#309CCD" transform="translate(298,168)"/>
<path d="M0 0 C2.72426311 2.35277269 3.8141763 4.62496331 5 8 C5.66 8 6.32 8 7 8 C8.32421875 9.64453125 8.32421875 9.64453125 9.6875 11.8125 C10.14511719 12.52019531 10.60273437 13.22789062 11.07421875 13.95703125 C12 16 12 16 11 19 C9.15527264 16.40373357 7.32626878 13.79677591 5.5 11.1875 C4.97535156 10.44951172 4.45070313 9.71152344 3.91015625 8.95117188 C3.41386719 8.23896484 2.91757812 7.52675781 2.40625 6.79296875 C1.94541016 6.1383667 1.48457031 5.48376465 1.00976562 4.80932617 C0 3 0 3 0 0 Z " fill="#E77743" transform="translate(522,690)"/>
<path d="M0 0 C0.66 0.33 1.32 0.66 2 1 C1.49210938 1.68964844 0.98421875 2.37929688 0.4609375 3.08984375 C-3.84402757 8.96684663 -8.02170844 14.89693908 -12 21 C-12.33 20.34 -12.66 19.68 -13 19 C-12.505 17.515 -12.505 17.515 -12 16 C-11.34 16 -10.68 16 -10 16 C-9.75507812 15.12085938 -9.51015625 14.24171875 -9.2578125 13.3359375 C-7.91678207 9.77929158 -6.30587544 7.52636746 -3.875 4.625 C-3.15054688 3.75101562 -2.42609375 2.87703125 -1.6796875 1.9765625 C-1.12539063 1.32429688 -0.57109375 0.67203125 0 0 Z " fill="#D85940" transform="translate(757,454)"/>
<path d="M0 0 C1 3 1 3 -0.125 5.8125 C-2.17292408 9.29397094 -4.25365929 12.04240231 -7 15 C-7.66 15 -8.32 15 -9 15 C-7.61219205 11.10993227 -5.7847773 8.03441292 -3.375 4.6875 C-2.74335938 3.80449219 -2.11171875 2.92148438 -1.4609375 2.01171875 C-0.97882813 1.34785156 -0.49671875 0.68398437 0 0 Z " fill="#279CD5" transform="translate(153,202)"/>
<path d="M0 0 C3.63306385 3.32404462 6.17839248 7.01053254 8.8125 11.125 C9.23208984 11.75792969 9.65167969 12.39085937 10.08398438 13.04296875 C11.12236574 14.65442714 12.06953918 16.32391031 13 18 C12.67 18.66 12.34 19.32 12 20 C10.1765784 17.61182838 8.36634337 15.21538924 6.5625 12.8125 C6.04623047 12.13896484 5.52996094 11.46542969 4.99804688 10.77148438 C2.36896577 7.24885936 0.34297566 4.52903759 0 0 Z " fill="#DE5D54" transform="translate(466,609)"/>
<path d="M0 0 C2 2.5 2 2.5 4 5 C4.680625 5.825 5.36125 6.65 6.0625 7.5 C7.95155058 9.93748462 9.61996909 12.23993818 11 15 C10.67 15.99 10.34 16.98 10 18 C8.32151032 15.75801735 6.65732386 13.50754386 5 11.25 C4.52304687 10.61578125 4.04609375 9.9815625 3.5546875 9.328125 C3.10351562 8.709375 2.65234375 8.090625 2.1875 7.453125 C1.76855469 6.88754883 1.34960938 6.32197266 0.91796875 5.73925781 C0 4 0 4 0 0 Z " fill="#E17236" transform="translate(534,707)"/>
<path d="M0 0 C0 3.33057572 -0.37280012 3.84595178 -2.3125 6.375 C-3.89158072 8.47748388 -5.25803446 10.45414064 -6.5625 12.75 C-8.1006672 15.15756605 -9.62621862 16.44476392 -12 18 C-10.46906512 13.32800909 -7.89242605 9.97829995 -4.875 6.1875 C-4.40707031 5.59001953 -3.93914062 4.99253906 -3.45703125 4.37695312 C-2.30994435 2.91383208 -1.15568766 1.45633703 0 0 Z " fill="#6D1FA9" transform="translate(492,175)"/>
<path d="M0 0 C0.66 0.33 1.32 0.66 2 1 C-1.63 6.28 -5.26 11.56 -9 17 C-9.33 16.34 -9.66 15.68 -10 15 C-8.61115841 12.56213976 -7.18304706 10.26297797 -5.625 7.9375 C-5.19960938 7.28716797 -4.77421875 6.63683594 -4.3359375 5.96679688 C-1.20310125 1.20310125 -1.20310125 1.20310125 0 0 Z " fill="#C14369" transform="translate(431,581)"/>
<path d="M0 0 C1 3 1 3 0 5.1875 C-2.7345947 9.0330238 -5.83491377 12.50539794 -9 16 C-9 11.86002304 -6.83167083 9.54392969 -4.5 6.3125 C-4.07074219 5.70599609 -3.64148438 5.09949219 -3.19921875 4.47460938 C-2.13906862 2.97861974 -1.07034429 1.488713 0 0 Z " fill="#0B1C2D" transform="translate(286,301)"/>
<path d="M0 0 C0.33 0.99 0.66 1.98 1 3 C-0.24609375 4.92578125 -0.24609375 4.92578125 -2 7 C-2.75990234 8.04220703 -2.75990234 8.04220703 -3.53515625 9.10546875 C-4.03917969 9.79253906 -4.54320312 10.47960937 -5.0625 11.1875 C-5.82240234 12.22970703 -5.82240234 12.22970703 -6.59765625 13.29296875 C-8 15 -8 15 -10 16 C-8.55797524 11.84848662 -6.4989562 8.70021555 -3.875 5.1875 C-3.15054687 4.21167969 -2.42609375 3.23585937 -1.6796875 2.23046875 C-0.84824219 1.12638672 -0.84824219 1.12638672 0 0 Z " fill="#5720A7" transform="translate(370,231)"/>
<path d="M0 0 C0 6.60669543 -6.05584158 12.04008571 -10 17 C-10 12.88343101 -7.87664321 10.59162394 -5.5625 7.375 C-5.14162109 6.776875 -4.72074219 6.17875 -4.28710938 5.5625 C-1.2094293 1.2094293 -1.2094293 1.2094293 0 0 Z " fill="#5D1F9F" transform="translate(539,108)"/>
<path d="M0 0 C1 2 1 2 0.375 4.3125 C-1.26624041 7.52037899 -3.36337053 9.57152549 -6 12 C-6.66 11.67 -7.32 11.34 -8 11 C-5.36 7.37 -2.72 3.74 0 0 Z " fill="#278BCE" transform="translate(61,333)"/>
<path d="M0 0 C0.33 0.66 0.66 1.32 1 2 C-0.55599625 6.50419967 -1.81168455 9.5447806 -6 12 C-5.54300722 6.97307937 -3.00758252 3.85103739 0 0 Z " fill="#2699D1" transform="translate(199,137)"/>
<path d="M0 0 C0.66 0 1.32 0 2 0 C0.49087042 4.98012761 -2.55661849 8.24259942 -6 12 C-6.66 11.67 -7.32 11.34 -8 11 C-6.71632558 9.16106176 -5.42283239 7.32897375 -4.125 5.5 C-3.04605469 3.96859375 -3.04605469 3.96859375 -1.9453125 2.40625 C-1.30335938 1.6121875 -0.66140625 0.818125 0 0 Z " fill="#CF575A" transform="translate(493,545)"/>
<path d="M0 0 C0 4.13997696 -2.16832917 6.45607031 -4.5 9.6875 C-4.92925781 10.29400391 -5.35851562 10.90050781 -5.80078125 11.52539062 C-6.86093138 13.02138026 -7.92965571 14.511287 -9 16 C-9.33 15.34 -9.66 14.68 -10 14 C-8.92578125 11.7578125 -8.92578125 11.7578125 -7.3125 9.125 C-6.79300781 8.26132812 -6.27351563 7.39765625 -5.73828125 6.5078125 C-4.02492746 4.03596277 -2.19041205 2.05202 0 0 Z " fill="#BA4276" transform="translate(474,520)"/>
<path d="M0 0 C0.33 0.99 0.66 1.98 1 3 C-0.36328125 5.48046875 -0.36328125 5.48046875 -2.3125 8.1875 C-2.94800781 9.08855469 -3.58351563 9.98960937 -4.23828125 10.91796875 C-5.11033203 11.94857422 -5.11033203 11.94857422 -6 13 C-6.66 13 -7.32 13 -8 13 C-6.53181332 9.89257577 -4.79975 7.09528261 -2.875 4.25 C-2.33617188 3.45078125 -1.79734375 2.6515625 -1.2421875 1.828125 C-0.62730469 0.92320312 -0.62730469 0.92320312 0 0 Z " fill="#2C95D4" transform="translate(89,293)"/>
<path d="M0 0 C0.33 0.66 0.66 1.32 1 2 C-0.109375 4.3125 -0.109375 4.3125 -1.75 7 C-2.28109375 7.886875 -2.8121875 8.77375 -3.359375 9.6875 C-5 12 -5 12 -8 14 C-7.37606349 10.23880524 -5.65226285 7.81039958 -3.4375 4.75 C-2.79683594 3.85796875 -2.15617187 2.9659375 -1.49609375 2.046875 C-0.75552734 1.03367188 -0.75552734 1.03367188 0 0 Z " fill="#7624B2" transform="translate(479,193)"/>
<path d="M0 0 C1 3 1 3 -0.1875 6.125 C-2 9 -2 9 -4.11328125 9.6796875 C-4.73589844 9.78539062 -5.35851562 9.89109375 -6 10 C-5.18957164 8.51969728 -4.37659652 7.04078858 -3.5625 5.5625 C-2.88380859 4.32693359 -2.88380859 4.32693359 -2.19140625 3.06640625 C-1 1 -1 1 0 0 Z " fill="#248AD8" transform="translate(36,368)"/>
<path d="M0 0 C0.66 0 1.32 0 2 0 C0.64531705 4.87685861 -1.71675909 6.48592381 -6 9 C-4.4722133 5.56247993 -2.49818944 2.81046312 0 0 Z " fill="#2793D2" transform="translate(98,281)"/>
<path d="M0 0 C0.33 0.66 0.66 1.32 1 2 C-1.16798732 7.4770206 -1.16798732 7.4770206 -4.1875 9.375 C-4.785625 9.58125 -5.38375 9.7875 -6 10 C-4.6302836 6.00499382 -2.74277578 3.19990508 0 0 Z " fill="#2182D1" transform="translate(17,395)"/>
<path d="M0 0 C0.33 0.66 0.66 1.32 1 2 C-1.062239 6.43522633 -3.73509285 10.47264762 -8 13 C-6.53181332 9.89257577 -4.79975 7.09528261 -2.875 4.25 C-2.33617188 3.45078125 -1.79734375 2.6515625 -1.2421875 1.828125 C-0.62730469 0.92320312 -0.62730469 0.92320312 0 0 Z " fill="#308FCE" transform="translate(70,320)"/>
<path d="M0 0 C0.66 0.33 1.32 0.66 2 1 C-0.31 3.97 -2.62 6.94 -5 10 C-5.66 9.67 -6.32 9.34 -7 9 C-4.69 6.03 -2.38 3.06 0 0 Z " fill="#30ABDF" transform="translate(207,127)"/>
<path d="M0 0 C0.66 0 1.32 0 2 0 C0.68775452 3.93673644 -0.91910327 6.22719294 -4 9 C-3.4739075 5.21213403 -2.61896089 2.82847776 0 0 Z " fill="#1D86DC" transform="translate(255,342)"/>
<path d="M0 0 C0.66 0.33 1.32 0.66 2 1 C-0.31 3.97 -2.62 6.94 -5 10 C-5 5.88168014 -2.91010261 2.91010261 0 0 Z " fill="#D66634" transform="translate(665,587)"/>
<path d="M0 0 C3.39417765 3.12621626 5.6062718 5.56541027 7 10 C6.01 9.67 5.02 9.34 4 9 C3.67 8.01 3.34 7.02 3 6 C2.34 5.67 1.68 5.34 1 5 C0.375 2.4375 0.375 2.4375 0 0 Z " fill="#2868C0" transform="translate(241,458)"/>
<path d="M0 0 C0.99 0.33 1.98 0.66 3 1 C-0.75 6.875 -0.75 6.875 -3 8 C-1.125 1.125 -1.125 1.125 0 0 Z " fill="#20A2E4" transform="translate(132,232)"/>
<path d="M0 0 C0.66 0.33 1.32 0.66 2 1 C0.02 3.97 -1.96 6.94 -4 10 C-4.33 9.01 -4.66 8.02 -5 7 C-4.00390625 5.17578125 -4.00390625 5.17578125 -2.5625 3.3125 C-2.08941406 2.68988281 -1.61632812 2.06726563 -1.12890625 1.42578125 C-0.75636719 0.95527344 -0.38382812 0.48476563 0 0 Z " fill="#2539C3" transform="translate(294,659)"/>
<path d="M0 0 C1 3 1 3 -0.4375 6.1875 C-1.2109375 7.5796875 -1.2109375 7.5796875 -2 9 C-2.66 8.67 -3.32 8.34 -4 8 C-2.25 2.25 -2.25 2.25 0 0 Z " fill="#C0514C" transform="translate(464,586)"/>
<path d="M0 0 C0.33 1.32 0.66 2.64 1 4 C-0.4375 6.25 -0.4375 6.25 -2 8 C-2.99 7.67 -3.98 7.34 -5 7 C-3.35 4.69 -1.7 2.38 0 0 Z " fill="#B74A60" transform="translate(552,459)"/>
<path d="M0 0 C0.33 0.99 0.66 1.98 1 3 C-0.21484375 4.82421875 -0.21484375 4.82421875 -1.9375 6.6875 C-2.50339844 7.31011719 -3.06929688 7.93273437 -3.65234375 8.57421875 C-4.09707031 9.04472656 -4.54179687 9.51523437 -5 10 C-5 6.60406522 -4.47834052 5.93380119 -2.5 3.3125 C-2.0359375 2.68988281 -1.571875 2.06726563 -1.09375 1.42578125 C-0.7328125 0.95527344 -0.371875 0.48476563 0 0 Z " fill="#6223AB" transform="translate(304,325)"/>
<path d="M0 0 C1 2 1 2 0.3125 4.5 C-1.15567038 7.29651501 -2.09303901 7.93411431 -5 9 C-3.7508258 5.54074837 -2.32472205 2.85306797 0 0 Z " fill="#2B8DBF" transform="translate(129,236)"/>
<path d="M0 0 C3.16717283 1.58358642 4.73268318 2.45263699 6.3125 5.6875 C6.539375 6.450625 6.76625 7.21375 7 8 C6.01 7.67 5.02 7.34 4 7 C4 6.34 4 5.68 4 5 C3.34 5 2.68 5 2 5 C1.34 3.35 0.68 1.7 0 0 Z " fill="#2EA0D0" transform="translate(286,153)"/>
<path d="M0 0 C0.33 0.66 0.66 1.32 1 2 C0.00390625 3.9453125 0.00390625 3.9453125 -1.4375 6.125 C-1.91058594 6.84945312 -2.38367188 7.57390625 -2.87109375 8.3203125 C-3.24363281 8.87460937 -3.61617188 9.42890625 -4 10 C-4.65234375 8.203125 -4.65234375 8.203125 -5 6 C-3.63510623 3.66629928 -1.8580962 1.99405446 0 0 Z " fill="#2945D9" transform="translate(315,629)"/>
<path d="M0 0 C3.53600465 1.91135386 5.78972846 3.62642766 8 7 C4.84859577 6.65930765 3.39218439 6.41923159 1.1875 4.0625 C0 2 0 2 0 0 Z " fill="#CF4471" transform="translate(385,613)"/>
<path d="M0 0 C0.66 0.33 1.32 0.66 2 1 C0.02 3.97 -1.96 6.94 -4 10 C-4.33 9.01 -4.66 8.02 -5 7 C-4.00390625 5.17578125 -4.00390625 5.17578125 -2.5625 3.3125 C-2.08941406 2.68988281 -1.61632812 2.06726563 -1.12890625 1.42578125 C-0.75636719 0.95527344 -0.38382812 0.48476563 0 0 Z " fill="#2641C1" transform="translate(331,606)"/>
<path d="M0 0 C0.33 0.99 0.66 1.98 1 3 C-0.9375 5.6875 -0.9375 5.6875 -3 8 C-3.66 7.67 -4.32 7.34 -5 7 C-3.35 4.69 -1.7 2.38 0 0 Z " fill="#7021B2" transform="translate(269,375)"/>
<path d="M0 0 C0.66 0 1.32 0 2 0 C1.43628586 3.26954202 0.50037734 4.82575883 -2 7 C-2.66 6.67 -3.32 6.34 -4 6 C-2.7260411 3.96166576 -1.38938077 1.96147874 0 0 Z " fill="#228BD3" transform="translate(41,361)"/>
<path d="M0 0 C2.7972908 2.06756277 3.02692273 3.14440371 3.6875 6.6875 C3.790625 7.780625 3.89375 8.87375 4 10 C1.16625119 6.79663178 0.4794463 4.21912747 0 0 Z " fill="#2991D7" transform="translate(331,215)"/>
<path d="M0 0 C4.875 4.625 4.875 4.625 6 8 C5.34 8 4.68 8 4 8 C4 7.34 4 6.68 4 6 C2.68 5.34 1.36 4.68 0 4 C0 2.68 0 1.36 0 0 Z " fill="#2BA5D6" transform="translate(271,130)"/>
</svg>
